<svg width="17" height="16" viewBox="0 0 17 16" fill="none" xmlns="http://www.w3.org/2000/svg">
    <g clip-path="url(#clip0_15_275)">
        <path d="M8.5 16C12.9183 16 16.5 12.4183 16.5 8C16.5 3.58172 12.9183 0 8.5 0C4.08172 0 0.5 3.58172 0.5 8C0.5 12.4183 4.08172 16 8.5 16Z"
              fill="black" fill-opacity="0.1"/>
        <path fill-rule="evenodd" clip-rule="evenodd"
              d="M5.84661 3.14071L7.44114 4.73864C7.63872 4.93679 7.63889 5.24733 7.44143 5.44565L6.67064 6.21991C7.15462 7.61739 8.23699 8.73537 9.60882 9.26405L9.76239 9.32035L10.493 8.58642C10.6982 8.38028 11.0404 8.37135 11.2572 8.56649L12.8517 10.1645C13.0493 10.3626 13.0495 10.6731 12.852 10.8714L12.4555 11.2697C11.7313 11.9972 10.6284 12.2022 9.65971 11.7895C8.29047 11.206 7.18558 10.4929 6.34508 9.64998C5.50459 8.80711 4.79311 7.69883 4.21061 6.32504C3.81505 5.39206 3.98664 4.33439 4.64168 3.60766L4.72612 3.5186L5.08246 3.16064C5.28766 2.9545 5.6298 2.94557 5.84661 3.14071Z"
              fill="black"/>
    </g>
    <defs>
        <clipPath id="clip0_15_275">
            <rect width="16" height="16" fill="white" transform="translate(0.5)"/>
        </clipPath>
    </defs>
</svg>
