<svg width="17" height="16" viewBox="0 0 17 16" fill="none" xmlns="http://www.w3.org/2000/svg">
    <g clip-path="url(#clip0_15_302)">
        <path d="M13.7414 0H3.25862C1.73508 0 0.5 1.23508 0.5 2.75862V13.2414C0.5 14.7649 1.73508 16 3.25862 16H13.7414C15.2649 16 16.5 14.7649 16.5 13.2414V2.75862C16.5 1.23508 15.2649 0 13.7414 0Z"
              fill="black"/>
        <path d="M9.24845 7.99998L11.3434 5.90503C11.4428 5.80579 11.4987 5.67111 11.4989 5.53062C11.499 5.39013 11.4433 5.25537 11.3441 5.15593C11.2448 5.05649 11.1101 5.00056 10.9696 5.00044C10.8292 5.00032 10.6944 5.05601 10.5949 5.15529L8.5 7.25024L6.40506 5.15529C6.30563 5.05585 6.17078 5 6.03018 5C5.88957 5 5.75472 5.05585 5.65529 5.15529C5.55589 5.25469 5.5 5.38953 5.5 5.53014C5.5 5.67075 5.55589 5.80563 5.65529 5.90503L7.75022 7.99998L5.65529 10.095C5.55589 10.1944 5.5 10.3292 5.5 10.4698C5.5 10.6104 5.55589 10.7453 5.65529 10.8447C5.75472 10.9442 5.88957 11 6.03018 11C6.17078 11 6.30563 10.9442 6.40506 10.8447L8.5 8.74976L10.5949 10.8447C10.6944 10.9442 10.8292 11 10.9698 11C11.1104 11 11.2453 10.9442 11.3447 10.8447C11.4442 10.7453 11.5 10.6104 11.5 10.4698C11.5 10.3292 11.4442 10.1944 11.3447 10.095L9.24845 7.99998Z"
              fill="white"/>
    </g>
    <defs>
        <clipPath id="clip0_15_302">
            <rect width="16" height="16" fill="white" transform="translate(0.5)"/>
        </clipPath>
    </defs>
</svg>
