<svg width="17" height="16" viewBox="0 0 17 16" fill="none" xmlns="http://www.w3.org/2000/svg">
    <g clip-path="url(#clip0_15_286)">
        <path d="M13.9999 14C13.9341 14.0001 13.869 13.9872 13.8083 13.962C13.7476 13.9368 13.6925 13.8999 13.6462 13.8533L2.63762 2.84502C2.54773 2.75042 2.49837 2.62445 2.50004 2.49397C2.50171 2.36349 2.55429 2.23883 2.64656 2.14656C2.73883 2.05429 2.8635 2.00171 2.99398 2.00004C3.12446 1.99837 3.25043 2.04773 3.34504 2.13761L14.3536 13.1459C14.4235 13.2159 14.4711 13.305 14.4904 13.4021C14.5097 13.4991 14.4998 13.5996 14.4619 13.6911C14.4241 13.7825 14.36 13.8606 14.2777 13.9156C14.1955 13.9705 14.0988 13.9999 13.9999 14Z"
              fill="black"/>
        <path d="M8.06476 11.9969C6.75525 11.9969 5.49246 11.612 4.31141 10.8528C3.2361 10.1631 2.2681 9.17538 1.51187 8.00022V7.9977C2.14122 7.10214 2.83053 6.34484 3.57097 5.73416C3.57767 5.7286 3.58314 5.72172 3.58702 5.71398C3.59091 5.70619 3.59312 5.6977 3.59354 5.68907C3.59395 5.68041 3.59256 5.67175 3.58943 5.66366C3.58631 5.65556 3.58153 5.64819 3.57539 5.64203L2.94668 5.01854C2.93551 5.00735 2.9205 5.00076 2.90466 5.00006C2.8888 4.99936 2.87327 5.00462 2.86115 5.01478C2.07462 5.67306 1.3446 6.48051 0.68085 7.42594C0.566652 7.58872 0.50376 7.78154 0.500163 7.97993C0.496567 8.17831 0.552428 8.37325 0.660651 8.53999C1.4942 9.83558 2.56699 10.9267 3.76256 11.695C5.10867 12.5611 6.55735 13 8.06476 13C8.8784 12.9975 9.68633 12.8643 10.4571 12.6056C10.4673 12.6022 10.4764 12.5962 10.4836 12.5883C10.4908 12.5805 10.4959 12.5709 10.4984 12.5605C10.5008 12.5501 10.5005 12.5393 10.4975 12.529C10.4946 12.5187 10.4891 12.5094 10.4814 12.5019L9.80037 11.8254C9.78467 11.8102 9.76528 11.7993 9.7441 11.7938C9.72292 11.7884 9.70064 11.7884 9.67946 11.7941C9.15202 11.929 8.60946 11.9971 8.06476 11.9969Z"
              fill="black"/>
        <path d="M16.3373 7.45063C15.5015 6.17349 14.417 5.08862 13.2015 4.31303C11.8567 3.45411 10.372 3 8.90815 3C8.10241 3.00141 7.30268 3.13678 6.54242 3.40043C6.53228 3.40391 6.52322 3.40989 6.51608 3.41779C6.50892 3.42569 6.50393 3.43526 6.50156 3.44559C6.49919 3.45593 6.49953 3.46669 6.50252 3.47686C6.50553 3.48703 6.5111 3.49628 6.51872 3.50374L7.19946 4.17633C7.21534 4.19172 7.23498 4.20271 7.25653 4.20819C7.27801 4.21367 7.30066 4.21345 7.32203 4.20754C7.83913 4.06933 8.37246 3.99913 8.90815 3.99874C10.1935 3.99874 11.4536 4.38669 12.6531 5.15354C13.7495 5.85264 14.7297 6.83517 15.4885 7.99371L15.4894 7.99622L15.4885 7.99868C14.9377 8.85543 14.2542 9.62138 13.463 10.2687C13.4562 10.2742 13.4507 10.281 13.4467 10.2888C13.4428 10.2965 13.4406 10.305 13.4401 10.3137C13.4396 10.3223 13.441 10.331 13.4441 10.3391C13.4473 10.3472 13.4521 10.3546 13.4583 10.3607L14.0869 10.9815C14.098 10.9926 14.113 10.9992 14.1288 10.9999C14.1445 11.0007 14.1601 10.9955 14.1722 10.9855C15.0169 10.2829 15.7481 9.4569 16.3405 8.53617C16.4452 8.37392 16.5006 8.18536 16.5 7.99297C16.4994 7.80053 16.443 7.61231 16.3373 7.45063Z"
              fill="black"/>
        <path d="M8.27213 5C8.03032 4.99987 7.78931 5.02694 7.55358 5.08072C7.54166 5.08319 7.53065 5.08885 7.52167 5.09708C7.51276 5.10532 7.50618 5.11583 7.50274 5.12749C7.49929 5.13916 7.49911 5.15154 7.50212 5.16332C7.50514 5.1751 7.51128 5.18584 7.51995 5.19439L11.3056 8.98002C11.3142 8.98869 11.3249 8.99484 11.3367 8.99785C11.3485 9.00093 11.3608 9.00068 11.3725 8.99724C11.3841 8.99379 11.3946 8.98721 11.4029 8.9783C11.4111 8.96932 11.4168 8.95831 11.4192 8.94638C11.527 8.47358 11.5269 7.98251 11.4189 7.50964C11.311 7.03684 11.0979 6.59448 10.7955 6.21534C10.4932 5.8362 10.1093 5.53003 9.67245 5.31964C9.23562 5.10924 8.75698 4.99999 8.27213 5Z"
              fill="black"/>
        <path d="M5.69494 7.01992C5.68639 7.01131 5.67566 7.00517 5.66389 7.00209C5.65212 6.99908 5.63974 6.99933 5.62809 7.00277C5.61643 7.00621 5.60593 7.01273 5.5977 7.0217C5.58946 7.03067 5.58382 7.04167 5.58135 7.05353C5.45946 7.58607 5.47476 8.14078 5.62582 8.66575C5.77689 9.19073 6.05876 9.66874 6.44503 10.055C6.83129 10.4413 7.30931 10.7231 7.83428 10.8742C8.35925 11.0252 8.91397 11.0405 9.44644 10.9187C9.45836 10.9162 9.46936 10.9106 9.47833 10.9023C9.48725 10.8941 9.49382 10.8836 9.49726 10.8719C9.50071 10.8603 9.50089 10.8479 9.49788 10.8361C9.49487 10.8243 9.48872 10.8136 9.48006 10.8051L5.69494 7.01992Z"
              fill="black"/>
    </g>
    <defs>
        <clipPath id="clip0_15_286">
            <rect width="16" height="16" fill="white" transform="translate(0.5)"/>
        </clipPath>
    </defs>
</svg>
